# xmcd
#
# Track frame offsets: 
#        150
#        5447
#        12297
#        29958
#        45404
#        54610
#        81428
#        93470
#        112572
#        117538
#        142312
#
# Disc length: 2555 seconds
#
# Revision: 0
# Processed by: cddbd v1.5.2PL0 Copyright (c) Steve Scherf et al.
# Submitted via: ExactAudioCopy v0.95b4
#
DISCID=9309f90b
DTITLE=Leusemia - Rock en el Parque
DYEAR=2006
DGENRE=Rock
TTITLE0=Intro
TTITLE1=La Danza de las Animas Transgresoras
TTITLE2=Kuando la Dignidad Murió en su Intento Por Amar
TTITLE3=Los Hombres y Mujeres de la Plaza
TTITLE4=Diarrea
TTITLE5=El Asesino de la Ilusión
TTITLE6=Al Colegio No Voy Más
TTITLE7=Los Regalos del Viento
TTITLE8=Por la Senda del Pastel
TTITLE9=Demolición
TTITLE10=Videos
EXTD=
EXTT0=
EXTT1=
EXTT2=
EXTT3=
EXTT4=
EXTT5=
EXTT6=
EXTT7=
EXTT8=
EXTT9=
EXTT10=
PLAYORDER=
